<?xml version="1.0" encoding="UTF-8" standalone="no"?>
<!DOCTYPE svg PUBLIC "-//W3C//DTD SVG 1.1//EN" "http://www.w3.org/Graphics/SVG/1.1/DTD/svg11.dtd">
<svg width="100%" height="100%" viewBox="0 0 2076 1541" version="1.1" xmlns="http://www.w3.org/2000/svg" xmlns:xlink="http://www.w3.org/1999/xlink" xml:space="preserve" xmlns:serif="http://www.serif.com/" style="fill-rule:evenodd;clip-rule:evenodd;stroke-linejoin:round;stroke-miterlimit:2;">
    <g transform="matrix(0.33711,0,0,0.367246,446.888,-395.531)">
        <g transform="matrix(0.856588,0,0,0.786297,251.535,734.367)">
            <path d="M882.22,3072.09L0,2243.85L0,1264.03L882.22,435.781L2625.65,435.781L3507.87,1264.03L3507.87,2243.85L2625.65,3072.09L882.22,3072.09ZM2540.58,950.068C2364.98,950.068 2222.41,1105.38 2222.41,1296.67C2222.41,1487.97 2364.98,1643.28 2540.58,1643.28C2716.18,1643.28 2858.74,1487.97 2858.74,1296.67C2858.74,1105.38 2716.18,950.068 2540.58,950.068ZM965.947,950.068C790.348,950.068 647.784,1105.38 647.784,1296.67C647.784,1487.97 790.348,1643.28 965.947,1643.28C1141.55,1643.28 1284.11,1487.97 1284.11,1296.67C1284.11,1105.38 1141.55,950.068 965.947,950.068ZM2274.25,2153.07L1234.43,2153.07L1234.43,2507.62L2274.25,2507.62L2274.25,2153.07Z" style="fill:rgb(88,101,242);"/>
            <path d="M882.22,3072.09L0,2243.85L0,1264.03L882.22,435.781L2625.65,435.781L3507.87,1264.03L3507.87,2243.85L2625.65,3072.09L882.22,3072.09ZM904.153,3016.68L2603.72,3016.68C2721.69,2905.93 3452.47,2219.87 3452.47,2219.87L3452.47,1288.01L2603.72,491.189L904.153,491.189L55.408,1288.01L55.409,2219.87L904.153,3016.68ZM2540.58,894.659C2745.4,894.659 2914.15,1073.54 2914.15,1296.67C2914.15,1519.81 2745.4,1698.69 2540.58,1698.69C2335.76,1698.69 2167.01,1519.81 2167.01,1296.67C2167.01,1073.54 2335.76,894.659 2540.58,894.659ZM2540.58,950.068C2364.98,950.068 2222.41,1105.38 2222.41,1296.67C2222.41,1487.97 2364.98,1643.28 2540.58,1643.28C2716.18,1643.28 2858.74,1487.97 2858.74,1296.67C2858.74,1105.38 2716.18,950.068 2540.58,950.068ZM965.947,894.659C1170.77,894.659 1339.52,1073.54 1339.52,1296.67C1339.52,1519.81 1170.77,1698.69 965.947,1698.69C761.125,1698.69 592.376,1519.81 592.376,1296.67C592.376,1073.54 761.125,894.659 965.947,894.659ZM965.947,950.068C790.348,950.068 647.784,1105.38 647.784,1296.67C647.784,1487.97 790.348,1643.28 965.947,1643.28C1141.55,1643.28 1284.11,1487.97 1284.11,1296.67C1284.11,1105.38 1141.55,950.068 965.947,950.068ZM2329.66,2153.07L2329.66,2507.62C2329.66,2538.22 2304.85,2563.03 2274.25,2563.03L1234.43,2563.03C1203.83,2563.03 1179.03,2538.22 1179.03,2507.62L1179.03,2153.07C1179.03,2122.46 1203.83,2097.66 1234.43,2097.66L2274.25,2097.66C2304.85,2097.66 2329.66,2122.46 2329.66,2153.07ZM2274.25,2153.07L1234.43,2153.07L1234.43,2507.62L2274.25,2507.62L2274.25,2153.07Z" style="fill:white;"/>
        </g>
        <g transform="matrix(0.470092,0,0,0.470092,929.426,1739.84)">
            <path d="M1007.23,2430.85L251.535,1780.04L251.535,1727.84L1007.23,1077.02L2500.64,1077.02L3256.34,1727.84L3256.34,1780.04L2500.64,2430.85L1007.23,2430.85ZM1078.95,1481.4C928.538,1481.4 806.42,1603.52 806.42,1753.94C806.42,1904.35 928.538,2026.47 1078.95,2026.47C1229.37,2026.47 1351.49,1904.35 1351.49,1753.94C1351.49,1603.52 1229.37,1481.4 1078.95,1481.4ZM2429.55,2026.47C2579.97,2026.47 2702.09,1904.35 2702.09,1753.94C2702.09,1603.52 2579.97,1481.4 2429.55,1481.4C2279.13,1481.4 2157.02,1603.52 2157.02,1753.94C2157.02,1904.35 2279.13,2026.47 2429.55,2026.47Z" style="fill:rgb(67,77,182);"/>
            <path d="M1007.23,2430.85L251.535,1780.04L251.535,1727.84L1007.23,1077.02L2500.64,1077.02L3256.34,1727.84L3256.34,1780.04L2500.64,2430.85L1007.23,2430.85ZM368.793,1753.94L1047.18,2338.18L2460.69,2338.18L3139.08,1753.94L2460.69,1169.7L1047.18,1169.7L368.793,1753.94ZM2429.55,2119.15C2225.88,2119.15 2056.05,1957.61 2056.05,1753.94C2056.05,1550.27 2225.88,1388.72 2429.55,1388.72C2633.22,1388.72 2803.05,1550.27 2803.05,1753.94C2803.05,1957.61 2633.22,2119.15 2429.55,2119.15ZM2429.55,2026.47C2579.97,2026.47 2702.09,1904.35 2702.09,1753.94C2702.09,1603.52 2579.97,1481.4 2429.55,1481.4C2279.13,1481.4 2157.02,1603.52 2157.02,1753.94C2157.02,1904.35 2279.13,2026.47 2429.55,2026.47ZM1078.95,1388.72C1282.62,1388.72 1452.45,1550.27 1452.45,1753.94C1452.45,1957.61 1282.62,2119.15 1078.95,2119.15C875.284,2119.15 705.456,1957.61 705.456,1753.94C705.456,1550.27 875.284,1388.72 1078.95,1388.72ZM1078.95,1481.4C928.538,1481.4 806.42,1603.52 806.42,1753.94C806.42,1904.35 928.538,2026.47 1078.95,2026.47C1229.37,2026.47 1351.49,1904.35 1351.49,1753.94C1351.49,1603.52 1229.37,1481.4 1078.95,1481.4Z" style="fill:white;"/>
        </g>
    </g>
    <g transform="matrix(1,0,0,0.697183,-699.398,334.282)">
        <path d="M805.155,820.087L929.955,820.087L929.955,723.699L732.755,723.699L732.755,1129.9L929.955,1129.9L929.955,1032.94L805.155,1032.94L805.155,972.128L919.955,972.128L919.955,883.198L805.155,883.198L805.155,820.087Z" style="fill:rgb(88,101,242);fill-rule:nonzero;"/>
        <path d="M1118.76,1129.9L1207.95,1129.9L1130.76,990.487C1165.15,974.996 1186.36,932.54 1186.36,857.38C1184.76,762.14 1139.56,723.699 1081.15,723.699L967.955,723.699L967.955,1129.9L1040.36,1129.9L1040.36,1000.81L1053.15,1000.81L1118.76,1129.9ZM1040.36,912.459L1040.36,819.513L1082.36,819.513C1127.56,819.513 1127.56,912.459 1082.36,912.459L1040.36,912.459Z" style="fill:rgb(88,101,242);fill-rule:nonzero;"/>
        <path d="M1377.15,1129.9L1466.36,1129.9L1389.15,990.487C1423.56,974.996 1444.76,932.54 1444.76,857.38C1443.15,762.14 1397.95,723.699 1339.56,723.699L1226.36,723.699L1226.36,1129.9L1298.76,1129.9L1298.76,1000.81L1311.56,1000.81L1377.15,1129.9ZM1298.76,912.459L1298.76,819.513L1340.76,819.513C1385.95,819.513 1385.95,912.459 1340.76,912.459L1298.76,912.459Z" style="fill:rgb(88,101,242);fill-rule:nonzero;"/>
        <path d="M1475.56,996.225C1475.56,1089.17 1534.36,1135.64 1593.15,1135.64C1651.95,1135.64 1710.36,1089.17 1710.36,996.225L1710.36,857.38C1710.36,764.435 1651.56,717.962 1592.76,717.962C1533.95,717.962 1475.56,763.861 1475.56,857.38L1475.56,996.225ZM1547.15,857.38C1547.15,827.546 1569.56,811.481 1591.95,811.481C1615.15,811.481 1638.76,825.825 1638.76,857.38L1638.76,996.225C1638.76,1025.49 1615.95,1040.4 1593.15,1040.4C1570.36,1040.4 1547.15,1026.06 1547.15,996.225L1547.15,857.38Z" style="fill:rgb(88,101,242);fill-rule:nonzero;"/>
        <path d="M1899.15,1129.9L1988.36,1129.9L1911.15,990.487C1945.56,974.996 1966.76,932.54 1966.76,857.38C1965.15,762.14 1919.95,723.699 1861.56,723.699L1748.36,723.699L1748.36,1129.9L1820.76,1129.9L1820.76,1000.81L1833.56,1000.81L1899.15,1129.9ZM1820.76,912.459L1820.76,819.513L1862.76,819.513C1907.95,819.513 1907.95,912.459 1862.76,912.459L1820.76,912.459Z" style="fill:rgb(88,101,242);fill-rule:nonzero;"/>
        <path d="M2274.36,958.358L2247.95,958.358L2247.95,723.699L2189.16,723.699L2057.16,981.307L2079.95,1041.55L2179.55,1041.55L2179.55,1129.9L2247.95,1129.9L2247.95,1041.55L2274.36,1041.55L2274.36,958.358ZM2134.76,959.505L2185.55,855.659L2184.76,959.505L2134.76,959.505Z" style="fill:rgb(88,101,242);fill-rule:nonzero;"/>
        <path d="M2405.95,1135.64C2454.36,1135.64 2508.36,1097.2 2508.36,1011.14L2508.36,843.037C2508.36,756.402 2454.36,717.962 2405.95,717.962C2357.95,717.962 2303.55,756.402 2303.55,843.037L2303.55,1011.14C2303.55,1097.2 2357.95,1135.64 2405.95,1135.64ZM2405.95,808.039C2421.95,808.039 2440.36,821.235 2440.36,845.905L2440.36,1012.29C2440.36,1035.81 2422.36,1048.43 2405.95,1048.43C2388.76,1048.43 2371.55,1035.81 2371.55,1012.29L2371.55,845.905C2371.55,821.808 2389.16,808.039 2405.95,808.039Z" style="fill:rgb(88,101,242);fill-rule:nonzero;"/>
        <path d="M2742.36,958.358L2715.95,958.358L2715.95,723.699L2657.16,723.699L2525.16,981.307L2547.95,1041.55L2647.55,1041.55L2647.55,1129.9L2715.95,1129.9L2715.95,1041.55L2742.36,1041.55L2742.36,958.358ZM2602.76,959.505L2653.55,855.659L2652.76,959.505L2602.76,959.505Z" style="fill:rgb(88,101,242);fill-rule:nonzero;"/>
    </g>
    <g transform="matrix(1,0,0,0.429577,-696.531,891.375)">
        <path d="M696.688,1163.2L744.422,1163.2L744.422,1034.7L772.422,1034.7C818.022,1034.7 841.222,957.107 841.222,878.891C841.222,801.295 818.288,723.699 772.155,723.699L696.688,723.699L696.688,1163.2ZM744.422,936.001L744.422,827.367L772.155,827.367C800.955,826.746 800.955,936.622 772.155,936.001L744.422,936.001Z" style="fill:rgb(88,101,242);"/>
        <path d="M938.022,723.699L894.555,723.699L828.688,1163.2L879.888,1163.2L891.622,1075.05L942.022,1075.05L954.288,1163.2L1005.49,1163.2L938.022,723.699ZM902.288,976.351L916.155,847.852L917.488,847.852L930.555,976.351L902.288,976.351Z" style="fill:rgb(88,101,242);"/>
        <path d="M1148.69,811.227C1135.62,741.081 1107.62,717.492 1083.09,717.492C1045.76,717.492 1008.42,767.153 1008.42,866.475L1008.42,1017.32C1008.42,1118.51 1045.76,1169.41 1083.09,1169.41C1120.95,1169.41 1157.22,1118.51 1157.22,1017.32L1157.22,908.067L1081.22,908.067L1081.22,1001.18L1111.36,1001.18L1111.36,1017.32C1111.36,1085.61 1056.15,1086.23 1056.15,1017.32L1056.15,866.475C1056.15,808.744 1098.29,795.087 1108.69,854.06L1148.69,811.227Z" style="fill:rgb(88,101,242);"/>
        <path d="M1227.62,827.988L1310.82,827.988L1310.82,723.699L1179.36,723.699L1179.36,1163.2L1310.82,1163.2L1310.82,1058.29L1227.62,1058.29L1227.62,992.491L1304.15,992.491L1304.15,896.272L1227.62,896.272L1227.62,827.988Z" style="fill:rgb(88,101,242);"/>
        <path d="M1384.69,1163.2L1432.42,1163.2L1432.42,987.524L1426.29,902.48L1427.62,901.859L1444.15,990.008L1486.82,1163.2L1535.09,1163.2L1535.09,723.699L1487.62,723.699L1487.62,922.965C1487.89,922.965 1492.69,998.698 1492.95,998.698L1491.62,999.319L1475.62,911.17L1430.02,723.699L1384.69,723.699L1384.69,1163.2Z" style="fill:rgb(88,101,242);"/>
        <path d="M1560.42,1018.56C1560.42,1119.13 1599.62,1169.41 1638.82,1169.41C1678.02,1169.41 1716.95,1119.13 1716.95,1018.56L1716.95,868.338C1716.95,767.774 1677.76,717.492 1638.56,717.492C1599.36,717.492 1560.42,767.153 1560.42,868.338L1560.42,1018.56ZM1608.15,868.338C1608.15,836.058 1623.09,818.676 1638.02,818.676C1653.49,818.676 1669.22,834.196 1669.22,868.338L1669.22,1018.56C1669.22,1050.22 1654.02,1066.36 1638.82,1066.36C1623.62,1066.36 1608.15,1050.84 1608.15,1018.56L1608.15,868.338Z" style="fill:rgb(88,101,242);"/>
        <path d="M1878.02,828.609L1878.02,723.079L1729.49,723.079L1729.49,828.609L1779.62,828.609L1779.62,1163.2L1827.89,1163.2L1827.89,828.609L1878.02,828.609Z" style="fill:rgb(88,101,242);"/>
        <path d="M1987.89,829.229L2071.09,829.229L2071.09,723.699L1939.62,723.699L1939.62,1163.2L1987.89,1163.2L1987.89,1011.73L2060.69,1011.73L2060.69,908.067L1987.89,908.067L1987.89,829.229Z" style="fill:rgb(88,101,242);"/>
        <path d="M2088.69,1018.56C2088.69,1119.13 2127.89,1169.41 2167.09,1169.41C2206.29,1169.41 2245.22,1119.13 2245.22,1018.56L2245.22,868.338C2245.22,767.774 2206.02,717.492 2166.82,717.492C2127.62,717.492 2088.69,767.153 2088.69,868.338L2088.69,1018.56ZM2136.42,868.338C2136.42,836.058 2151.36,818.676 2166.29,818.676C2181.76,818.676 2197.49,834.196 2197.49,868.338L2197.49,1018.56C2197.49,1050.22 2182.29,1066.36 2167.09,1066.36C2151.89,1066.36 2136.42,1050.84 2136.42,1018.56L2136.42,868.338Z" style="fill:rgb(88,101,242);"/>
        <path d="M2317.76,723.699L2269.49,723.699L2269.49,1016.08C2269.22,1222.17 2419.89,1222.17 2420.16,1016.08L2420.16,723.699L2371.89,723.699L2371.89,1016.08C2371.62,1086.85 2317.76,1086.85 2317.76,1016.08L2317.76,723.699Z" style="fill:rgb(88,101,242);"/>
        <path d="M2448.42,1163.2L2496.16,1163.2L2496.16,987.524L2490.02,902.48L2491.36,901.859L2507.89,990.008L2550.55,1163.2L2598.82,1163.2L2598.82,723.699L2551.36,723.699L2551.36,922.965C2551.62,922.965 2556.42,998.698 2556.69,998.698L2555.36,999.319L2539.36,911.17L2493.76,723.699L2448.42,723.699L2448.42,1163.2Z" style="fill:rgb(88,101,242);"/>
        <path d="M2628.69,723.699L2628.69,1163.2L2699.36,1163.2C2737.22,1163.82 2772.69,1119.75 2772.69,1018.56L2772.69,870.821C2772.69,768.394 2737.22,723.699 2699.36,723.699L2628.69,723.699ZM2676.69,1058.91L2676.69,827.367L2700.95,827.367C2716.95,827.367 2724.69,845.369 2724.69,873.924L2724.69,1011.11C2724.69,1039.67 2717.22,1058.91 2700.95,1058.91L2676.69,1058.91Z" style="fill:rgb(88,101,242);"/>
    </g>
    <g transform="matrix(0.648649,0,0,0.16604,-85.412,1348.66)">
        <g opacity="0.5">
            <path d="M1541,1009.77C1541,1107.34 1563.66,1156.12 1586.33,1156.12C1608.99,1156.12 1631.5,1107.34 1631.5,1009.77L1631.5,864.027C1631.5,766.46 1608.84,717.677 1586.17,717.677C1563.51,717.677 1541,765.858 1541,864.027L1541,1009.77ZM1568.6,864.027C1568.6,832.709 1577.23,815.846 1585.87,815.846C1594.81,815.846 1603.9,830.902 1603.9,864.027L1603.9,1009.77C1603.9,1040.49 1595.12,1056.15 1586.33,1056.15C1577.54,1056.15 1568.6,1041.09 1568.6,1009.77L1568.6,864.027Z" style="fill:rgb(88,101,242);fill-rule:nonzero;"/>
            <rect x="1646.14" y="723.699" width="27.596" height="426.403" style="fill:rgb(88,101,242);fill-rule:nonzero;"/>
            <path d="M1691.01,1150.1L1718.6,1150.1L1718.6,979.661L1715.06,897.151L1715.83,896.549L1725.39,982.071L1750.05,1150.1L1777.96,1150.1L1777.96,723.699L1750.52,723.699L1750.52,917.026C1750.67,917.026 1753.44,990.502 1753.6,990.502L1752.83,991.105L1743.58,905.583L1717.22,723.699L1691.01,723.699L1691.01,1150.1Z" style="fill:rgb(88,101,242);fill-rule:nonzero;"/>
            <path d="M1822.97,881.492L1822.97,723.699L1795.22,723.699L1795.22,1150.1L1822.97,1150.1L1822.97,1002.55L1823.9,997.729L1851.8,1150.1L1886.8,1150.1L1843.79,929.674L1886.95,723.699L1852.57,723.699L1822.97,881.492Z" style="fill:rgb(88,101,242);fill-rule:nonzero;"/>
            <path d="M1893.43,1017.6L1921.8,1017.6L1923.34,721.29L1891.89,721.29L1893.43,1017.6ZM1892.5,1096.5C1892.5,1129.62 1899.29,1156.12 1907.77,1156.12C1916.4,1156.12 1923.34,1129.62 1923.34,1096.5C1923.34,1062.77 1916.4,1035.67 1907.77,1035.67C1899.29,1035.67 1892.5,1062.77 1892.5,1096.5Z" style="fill:rgb(88,101,242);fill-rule:nonzero;"/>
        </g>
    </g>
</svg>
