<?xml version="1.0" encoding="UTF-8" standalone="no"?>
<!DOCTYPE svg PUBLIC "-//W3C//DTD SVG 1.1//EN" "http://www.w3.org/Graphics/SVG/1.1/DTD/svg11.dtd">
<svg width="100%" height="100%" viewBox="0 0 4000 1080" version="1.1" xmlns="http://www.w3.org/2000/svg" xmlns:xlink="http://www.w3.org/1999/xlink" xml:space="preserve" xmlns:serif="http://www.serif.com/" style="fill-rule:evenodd;clip-rule:evenodd;stroke-linejoin:round;stroke-miterlimit:2;">
    <g transform="matrix(0.307879,0,0,0.307879,0,0)">
        <path d="M3507.87,876.969C3507.87,392.956 3114.92,0 2630.91,0L876.969,0C392.956,0 0,392.956 0,876.969L0,2630.91C0,3114.92 392.956,3507.87 876.969,3507.87L2630.91,3507.87C3114.92,3507.87 3507.87,3114.92 3507.87,2630.91L3507.87,876.969Z" style="fill:rgb(88,101,242);"/>
        <path d="M1007.23,2430.85L251.535,1780.04L251.535,1727.84L1007.23,1077.02L2500.64,1077.02L3256.34,1727.84L3256.34,1780.04L2500.64,2430.85L1007.23,2430.85ZM1078.95,1481.4C928.538,1481.4 806.42,1603.52 806.42,1753.94C806.42,1904.35 928.538,2026.47 1078.95,2026.47C1229.37,2026.47 1351.49,1904.35 1351.49,1753.94C1351.49,1603.52 1229.37,1481.4 1078.95,1481.4ZM2429.55,2026.47C2579.97,2026.47 2702.09,1904.35 2702.09,1753.94C2702.09,1603.52 2579.97,1481.4 2429.55,1481.4C2279.13,1481.4 2157.02,1603.52 2157.02,1753.94C2157.02,1904.35 2279.13,2026.47 2429.55,2026.47Z" style="fill:white;"/>
    </g>
    <g transform="matrix(1.19503,0,0,1.19503,-312.392,7.32495)">
        <g>
            <g>
                <path d="M1370.48,547.2L1495.28,547.2L1495.28,480L1298.08,480L1298.08,763.2L1495.28,763.2L1495.28,695.6L1370.48,695.6L1370.48,653.2L1485.28,653.2L1485.28,591.2L1370.48,591.2L1370.48,547.2Z" style="fill-rule:nonzero;"/>
                <path d="M1641.68,576.8L1593.28,480L1509.68,480L1589.28,622L1509.68,763.2L1593.28,763.2L1641.68,666.8L1691.28,763.2L1774.48,763.2L1695.28,622L1774.48,480L1691.28,480L1641.68,576.8Z" style="fill-rule:nonzero;"/>
                <path d="M2001.68,547.6L2001.68,479.6L1778.88,479.6L1778.88,547.6L1854.08,547.6L1854.08,763.2L1926.48,763.2L1926.48,547.6L2001.68,547.6Z" style="fill-rule:nonzero;"/>
                <path d="M2102.08,547.2L2226.88,547.2L2226.88,480L2029.68,480L2029.68,763.2L2226.88,763.2L2226.88,695.6L2102.08,695.6L2102.08,653.2L2216.88,653.2L2216.88,591.2L2102.08,591.2L2102.08,547.2Z" style="fill-rule:nonzero;"/>
                <path d="M2264.88,763.2L2336.48,763.2L2336.48,650L2327.28,595.2L2329.28,594.8L2354.08,651.6L2418.08,763.2L2490.48,763.2L2490.48,480L2419.28,480L2419.28,608.4C2419.68,608.4 2426.88,657.2 2427.28,657.2L2425.28,657.6L2401.28,600.8L2332.88,480L2264.88,480L2264.88,763.2Z" style="fill-rule:nonzero;"/>
                <path d="M2521.68,716C2548.08,750 2584.08,767.2 2618.08,767.2C2670.08,767.2 2727.68,737.2 2730.08,682.4C2733.28,612.8 2682.88,595.2 2632.48,586C2610.48,581.2 2595.68,573.2 2594.88,559.6C2596.08,526.8 2646.88,525.6 2676.48,557.2L2723.28,521.2C2694.08,485.6 2660.88,476 2626.48,476C2574.48,476 2524.08,505.2 2524.08,560.8C2524.08,614.8 2565.68,643.6 2611.28,650.8C2634.48,654 2660.48,663.2 2659.68,679.2C2657.68,709.6 2595.28,708 2566.88,673.6L2521.68,716Z" style="fill-rule:nonzero;"/>
                <rect x="2760.88" y="480" width="71.6" height="283.2" style="fill-rule:nonzero;"/>
                <path d="M2870.48,670C2870.48,734.8 2929.28,767.2 2988.08,767.2C3046.88,767.2 3105.28,734.8 3105.28,670L3105.28,573.2C3105.28,508.4 3046.48,476 2987.68,476C2928.88,476 2870.48,508 2870.48,573.2L2870.48,670ZM2942.08,573.2C2942.08,552.4 2964.48,541.2 2986.88,541.2C3010.08,541.2 3033.68,551.2 3033.68,573.2L3033.68,670C3033.68,690.4 3010.88,700.8 2988.08,700.8C2965.28,700.8 2942.08,690.8 2942.08,670L2942.08,573.2Z" style="fill-rule:nonzero;"/>
                <path d="M3143.28,763.2L3214.88,763.2L3214.88,650L3205.68,595.2L3207.68,594.8L3232.48,651.6L3296.48,763.2L3368.88,763.2L3368.88,480L3297.68,480L3297.68,608.4C3298.08,608.4 3305.28,657.2 3305.68,657.2L3303.68,657.6L3279.68,600.8L3211.28,480L3143.28,480L3143.28,763.2Z" style="fill-rule:nonzero;"/>
                <path d="M3400.08,716C3426.48,750 3462.48,767.2 3496.48,767.2C3548.48,767.2 3606.08,737.2 3608.48,682.4C3611.68,612.8 3561.28,595.2 3510.88,586C3488.88,581.2 3474.08,573.2 3473.28,559.6C3474.48,526.8 3525.28,525.6 3554.88,557.2L3601.68,521.2C3572.48,485.6 3539.28,476 3504.88,476C3452.88,476 3402.48,505.2 3402.48,560.8C3402.48,614.8 3444.08,643.6 3489.68,650.8C3512.88,654 3538.88,663.2 3538.08,679.2C3536.08,709.6 3473.68,708 3445.28,673.6L3400.08,716Z" style="fill-rule:nonzero;"/>
            </g>
        </g>
        <g transform="matrix(1,0,0,1,0,128.288)">
            <path d="M1370.08,104.8L1370.08,0L1298.08,0L1298.08,283.2L1370.08,283.2L1370.08,185.2L1372.48,182L1444.88,283.2L1535.68,283.2L1424.08,136.8L1536.08,0L1446.88,0L1370.08,104.8Z" style="fill-rule:nonzero;"/>
            <path d="M1530.48,190C1530.48,254.8 1589.28,287.2 1648.08,287.2C1706.88,287.2 1765.28,254.8 1765.28,190L1765.28,93.2C1765.28,28.4 1706.48,-4 1647.68,-4C1588.88,-4 1530.48,28 1530.48,93.2L1530.48,190ZM1602.08,93.2C1602.08,72.4 1624.48,61.2 1646.88,61.2C1670.08,61.2 1693.68,71.2 1693.68,93.2L1693.68,190C1693.68,210.4 1670.88,220.8 1648.08,220.8C1625.28,220.8 1602.08,210.8 1602.08,190L1602.08,93.2Z" style="fill-rule:nonzero;"/>
            <path d="M1954.08,283.2L2043.28,283.2L1966.08,186C2000.48,175.2 2021.68,145.6 2021.68,93.2C2020.08,26.8 1974.88,0 1916.48,0L1803.28,0L1803.28,283.2L1875.68,283.2L1875.68,193.2L1888.48,193.2L1954.08,283.2ZM1875.68,131.6L1875.68,66.8L1917.68,66.8C1962.88,66.8 1962.88,131.6 1917.68,131.6L1875.68,131.6Z" style="fill-rule:nonzero;"/>
            <path d="M2061.68,0L2061.68,283.2L2167.68,283.2C2224.48,283.6 2277.68,255.2 2277.68,190L2277.68,94.8C2277.68,28.8 2224.48,0 2167.68,0L2061.68,0ZM2133.68,216L2133.68,66.8L2170.08,66.8C2194.08,66.8 2205.68,78.4 2205.68,96.8L2205.68,185.2C2205.68,203.6 2194.48,216 2170.08,216L2133.68,216Z" style="fill-rule:nonzero;"/>
        </g>
    </g>
</svg>
